<svg width="27" height="128" viewBox="0 0 27 128" fill="none" xmlns="http://www.w3.org/2000/svg">
<path d="M10.9219 15.3359C10.4115 15.5443 9.7474 15.7474 8.92969 15.9453C8.11719 16.1432 7.3151 16.2422 6.52344 16.2422C4.69531 16.2422 3.23698 15.7161 2.14844 14.6641C1.0651 13.6068 0.523438 12.1094 0.523438 10.1719C0.523438 8.34896 1.0651 6.88802 2.14844 5.78906C3.23698 4.6901 4.72396 4.14062 6.60938 4.14062C7.58333 4.14062 8.375 4.23438 8.98438 4.42188C9.59375 4.60417 10.224 4.85417 10.875 5.17188V7.89844H10.6094C10.4688 7.78906 10.2656 7.63542 10 7.4375C9.73958 7.23438 9.48438 7.0625 9.23438 6.92188C8.94271 6.75521 8.60417 6.61198 8.21875 6.49219C7.83854 6.3724 7.4349 6.3125 7.00781 6.3125C6.50781 6.3125 6.05208 6.39062 5.64062 6.54688C5.22917 6.70312 4.86198 6.94271 4.53906 7.26562C4.23177 7.57812 3.98698 7.97396 3.80469 8.45312C3.6276 8.93229 3.53906 9.48958 3.53906 10.125C3.53906 11.4844 3.88021 12.487 4.5625 13.1328C5.24479 13.7786 6.17708 14.1016 7.35938 14.1016C7.46354 14.1016 7.58594 14.099 7.72656 14.0938C7.86719 14.0885 7.98958 14.0807 8.09375 14.0703V11.7891H5.83594V9.60938H10.9219V15.3359ZM22.0781 8.03906C22.0781 8.58073 21.9922 9.09635 21.8203 9.58594C21.6484 10.0755 21.401 10.4844 21.0781 10.8125C20.8802 11.0156 20.6615 11.2031 20.4219 11.375C20.1875 11.5469 19.9271 11.6927 19.6406 11.8125C19.3542 11.9323 19.0417 12.026 18.7031 12.0938C18.3698 12.1615 17.9948 12.1953 17.5781 12.1953H16.0469V16H13.125V4.36719H17.6406C18.3125 4.36719 18.8906 4.42969 19.375 4.55469C19.8646 4.67448 20.3073 4.86719 20.7031 5.13281C21.1406 5.42448 21.4792 5.8151 21.7188 6.30469C21.9583 6.78906 22.0781 7.36719 22.0781 8.03906ZM19.0781 8.10938C19.0781 7.78125 19 7.5 18.8438 7.26562C18.6875 7.02604 18.5 6.86198 18.2812 6.77344C18.0052 6.65365 17.7396 6.58594 17.4844 6.57031C17.2344 6.54948 16.8932 6.53906 16.4609 6.53906H16.0469V10.0234H16.25C16.526 10.0234 16.7865 10.0208 17.0312 10.0156C17.276 10.0104 17.4896 9.99219 17.6719 9.96094C17.8281 9.9349 17.9922 9.88542 18.1641 9.8125C18.3411 9.73438 18.4766 9.64844 18.5703 9.55469C18.7682 9.36198 18.901 9.16146 18.9688 8.95312C19.0417 8.74479 19.0781 8.46354 19.0781 8.10938ZM13.0859 74H10.1797V66.2891L8.0625 71.2656H6.07031L3.95312 66.2891V74H1.20312V62.3672H4.57031L7.14844 68.1094L9.71875 62.3672H13.0859V74ZM26.0781 77.0781C25.7656 77.1562 25.4505 77.2135 25.1328 77.25C24.8203 77.2865 24.3281 77.3047 23.6562 77.3047C23.0417 77.3047 22.5182 77.2266 22.0859 77.0703C21.6589 76.9193 21.3021 76.7031 21.0156 76.4219C20.7292 76.1458 20.513 75.8177 20.3672 75.4375C20.2266 75.0573 20.1458 74.6484 20.125 74.2109C18.4792 74.138 17.1823 73.5677 16.2344 72.5C15.2917 71.4323 14.8203 69.9948 14.8203 68.1875C14.8203 66.3177 15.3203 64.8411 16.3203 63.7578C17.3203 62.6693 18.6979 62.125 20.4531 62.125C22.2031 62.125 23.5807 62.6667 24.5859 63.75C25.5911 64.8281 26.0938 66.3073 26.0938 68.1875C26.0938 69.5573 25.8073 70.7344 25.2344 71.7188C24.6667 72.6979 23.862 73.3932 22.8203 73.8047C22.8307 74.3724 22.9557 74.763 23.1953 74.9766C23.4401 75.1953 23.8672 75.3047 24.4766 75.3047C24.7109 75.3047 24.9583 75.2682 25.2188 75.1953C25.4844 75.1276 25.6745 75.0625 25.7891 75H26.0781V77.0781ZM22.2969 71.1328C22.5469 70.7943 22.7396 70.401 22.875 69.9531C23.0104 69.5 23.0781 68.9089 23.0781 68.1797C23.0781 67.487 23.0052 66.8984 22.8594 66.4141C22.7188 65.9245 22.5286 65.5234 22.2891 65.2109C22.0391 64.8932 21.7552 64.6667 21.4375 64.5312C21.125 64.3906 20.7995 64.3203 20.4609 64.3203C20.1016 64.3203 19.776 64.3854 19.4844 64.5156C19.1927 64.6406 18.9115 64.8672 18.6406 65.1953C18.401 65.4974 18.2057 65.8984 18.0547 66.3984C17.9089 66.8984 17.8359 67.4948 17.8359 68.1875C17.8359 68.901 17.9062 69.4948 18.0469 69.9688C18.1875 70.4375 18.3802 70.8307 18.625 71.1484C18.875 71.4714 19.1589 71.7031 19.4766 71.8438C19.7943 71.9792 20.1224 72.0469 20.4609 72.0469C20.8047 72.0469 21.138 71.974 21.4609 71.8281C21.7839 71.6771 22.0625 71.4453 22.2969 71.1328ZM11.9609 132H8.39844L5.15625 127.734H4.10938V132H1.20312V120.367H5.88281C6.52865 120.367 7.09115 120.409 7.57031 120.492C8.04948 120.57 8.49219 120.737 8.89844 120.992C9.3151 121.258 9.64583 121.596 9.89062 122.008C10.1354 122.414 10.2578 122.932 10.2578 123.562C10.2578 124.453 10.0573 125.177 9.65625 125.734C9.25521 126.286 8.71875 126.727 8.04688 127.055L11.9609 132ZM7.25781 123.93C7.25781 123.638 7.20052 123.388 7.08594 123.18C6.97656 122.966 6.79167 122.802 6.53125 122.688C6.34896 122.609 6.14583 122.56 5.92188 122.539C5.69792 122.518 5.41927 122.508 5.08594 122.508H4.10938V125.641H4.94531C5.35156 125.641 5.69531 125.617 5.97656 125.57C6.26302 125.518 6.50521 125.411 6.70312 125.25C6.89062 125.104 7.02865 124.93 7.11719 124.727C7.21094 124.523 7.25781 124.258 7.25781 123.93ZM12.8281 132V120.367H20.6953V122.586H15.7344V124.625H20.3047V126.844H15.7344V129.781H20.6953V132H12.8281Z" transform="translate(0 -4)" fill="#007A8E"/>
</svg>
