<svg width="98" height="490" viewBox="0 0 98 490" fill="none" xmlns="http://www.w3.org/2000/svg">
<path d="M6.14062 16.2266C5.31771 16.2266 4.5651 16.1016 3.88281 15.8516C3.20052 15.6016 2.61458 15.2214 2.125 14.7109C1.63542 14.1953 1.26042 13.5573 1 12.7969C0.739583 12.0365 0.609375 11.1615 0.609375 10.1719C0.609375 9.23438 0.739583 8.39583 1 7.65625C1.26562 6.91146 1.64323 6.27604 2.13281 5.75C2.60677 5.23958 3.1901 4.84635 3.88281 4.57031C4.57552 4.29427 5.33333 4.15625 6.15625 4.15625C6.54688 4.15625 6.92188 4.1849 7.28125 4.24219C7.64062 4.29948 7.98438 4.3776 8.3125 4.47656C8.57292 4.55469 8.86198 4.66406 9.17969 4.80469C9.5026 4.9401 9.76302 5.05729 9.96094 5.15625V7.02344H9.82812C9.63542 6.85156 9.4349 6.6901 9.22656 6.53906C9.02344 6.38281 8.73438 6.21615 8.35938 6.03906C8.04688 5.88281 7.6875 5.7526 7.28125 5.64844C6.875 5.54427 6.4375 5.49219 5.96875 5.49219C4.84896 5.49219 3.94271 5.91406 3.25 6.75781C2.5625 7.60156 2.21875 8.72396 2.21875 10.125C2.21875 10.9062 2.3099 11.5885 2.49219 12.1719C2.67448 12.7552 2.9375 13.25 3.28125 13.6562C3.61458 14.0573 4.01562 14.3646 4.48438 14.5781C4.95833 14.7865 5.48958 14.8906 6.07812 14.8906C6.51562 14.8906 6.95052 14.8594 7.38281 14.7969C7.8151 14.7344 8.17969 14.6406 8.47656 14.5156V11.5078H5.78906V10.1484H10.0078V15.2266C9.8099 15.3151 9.54427 15.4271 9.21094 15.5625C8.88281 15.6979 8.57552 15.8047 8.28906 15.8828C7.90885 15.9974 7.5651 16.0833 7.25781 16.1406C6.95052 16.1979 6.57812 16.2266 6.14062 16.2266ZM20.2406 16H18.7719V15.0312C18.3188 15.4271 17.8891 15.7292 17.4828 15.9375C17.0766 16.1406 16.6234 16.2422 16.1234 16.2422C15.7432 16.2422 15.3839 16.1797 15.0453 16.0547C14.712 15.9297 14.4203 15.7318 14.1703 15.4609C13.9203 15.1901 13.725 14.849 13.5844 14.4375C13.449 14.026 13.3813 13.526 13.3813 12.9375V7.27344H14.85V12.2422C14.85 12.7057 14.8656 13.0911 14.8969 13.3984C14.9333 13.7005 15.0115 13.9661 15.1313 14.1953C15.251 14.4193 15.4125 14.5833 15.6156 14.6875C15.824 14.7917 16.1208 14.8438 16.5063 14.8438C16.8656 14.8438 17.2484 14.7422 17.6547 14.5391C18.0609 14.3359 18.4333 14.0859 18.7719 13.7891V7.27344H20.2406V16ZM28.8406 13.8516V11.4297C28.4917 11.4609 28.049 11.5052 27.5125 11.5625C26.9813 11.6146 26.5516 11.6901 26.2234 11.7891C25.8328 11.9089 25.5099 12.0938 25.2547 12.3438C24.9995 12.5885 24.8719 12.9323 24.8719 13.375C24.8719 13.875 25.0125 14.2526 25.2938 14.5078C25.575 14.763 25.9865 14.8906 26.5281 14.8906C26.9917 14.8906 27.4109 14.7917 27.7859 14.5938C28.1609 14.3906 28.5125 14.1432 28.8406 13.8516ZM28.8406 15.0703C28.7208 15.1589 28.5594 15.2839 28.3563 15.4453C28.1583 15.6016 27.9656 15.7266 27.7781 15.8203C27.5177 15.9557 27.2651 16.0599 27.0203 16.1328C26.7807 16.2057 26.4422 16.2422 26.0047 16.2422C25.6453 16.2422 25.3042 16.1745 24.9813 16.0391C24.6583 15.9036 24.3745 15.7135 24.1297 15.4688C23.8953 15.2292 23.7078 14.9349 23.5672 14.5859C23.4266 14.2318 23.3563 13.8594 23.3563 13.4688C23.3563 12.8646 23.4839 12.3516 23.7391 11.9297C23.9943 11.5026 24.3979 11.1641 24.95 10.9141C25.4396 10.6901 26.0177 10.5365 26.6844 10.4531C27.351 10.3646 28.0698 10.2995 28.8406 10.2578V9.97656C28.8406 9.63281 28.7885 9.35677 28.6844 9.14844C28.5802 8.9349 28.4344 8.77083 28.2469 8.65625C28.0594 8.53646 27.8302 8.45833 27.5594 8.42188C27.2885 8.38021 27.0099 8.35938 26.7234 8.35938C26.3849 8.35938 25.9865 8.41146 25.5281 8.51562C25.0698 8.61458 24.6115 8.76042 24.1531 8.95312H24.0672V7.46094C24.338 7.38281 24.726 7.29688 25.2313 7.20312C25.7365 7.10938 26.2365 7.0625 26.7313 7.0625C27.3302 7.0625 27.8354 7.10938 28.2469 7.20312C28.6583 7.29688 29.0281 7.46615 29.3563 7.71094C29.674 7.95052 29.9109 8.26042 30.0672 8.64062C30.2234 9.02083 30.3016 9.48438 30.3016 10.0312V16H28.8406V15.0703ZM40.6906 16H39.2219V15.1094C38.9927 15.3021 38.7948 15.4609 38.6281 15.5859C38.4615 15.7109 38.2661 15.8255 38.0422 15.9297C37.8339 16.0286 37.6177 16.1042 37.3938 16.1562C37.1698 16.2135 36.9094 16.2422 36.6125 16.2422C36.1385 16.2422 35.6984 16.1432 35.2922 15.9453C34.8911 15.7474 34.55 15.4583 34.2688 15.0781C33.9823 14.6927 33.7609 14.2188 33.6047 13.6562C33.4484 13.0885 33.3703 12.4375 33.3703 11.7031C33.3703 10.9375 33.4693 10.276 33.6672 9.71875C33.8651 9.15625 34.1385 8.66667 34.4875 8.25C34.8052 7.86979 35.188 7.57292 35.6359 7.35938C36.0891 7.14062 36.563 7.03125 37.0578 7.03125C37.4953 7.03125 37.8755 7.08073 38.1984 7.17969C38.5214 7.27344 38.8625 7.42188 39.2219 7.625V3.84375H40.6906V16ZM39.2219 13.875V8.84375C38.8573 8.66667 38.5292 8.54427 38.2375 8.47656C37.951 8.40885 37.6385 8.375 37.3 8.375C36.5448 8.375 35.9536 8.65885 35.5266 9.22656C35.0995 9.78906 34.8859 10.6042 34.8859 11.6719C34.8859 12.6979 35.05 13.4844 35.3781 14.0312C35.7063 14.5729 36.2323 14.8438 36.9563 14.8438C37.3417 14.8438 37.7297 14.7578 38.1203 14.5859C38.5109 14.4089 38.8781 14.1719 39.2219 13.875ZM48.2047 16.2031C46.8141 16.2031 45.7333 15.8125 44.9625 15.0312C44.1969 14.2448 43.8141 13.1302 43.8141 11.6875C43.8141 10.2656 44.1865 9.13542 44.9313 8.29688C45.676 7.45312 46.65 7.03125 47.8531 7.03125C48.3948 7.03125 48.874 7.10938 49.2906 7.26562C49.7073 7.42188 50.0719 7.66667 50.3844 8C50.6969 8.33333 50.9365 8.74219 51.1031 9.22656C51.2698 9.70573 51.3531 10.2943 51.3531 10.9922V11.7891H45.3063C45.3063 12.8047 45.5615 13.5807 46.0719 14.1172C46.5823 14.6536 47.288 14.9219 48.1891 14.9219C48.512 14.9219 48.8271 14.8854 49.1344 14.8125C49.4469 14.7396 49.7281 14.6458 49.9781 14.5312C50.2438 14.4115 50.4677 14.2969 50.65 14.1875C50.8323 14.0729 50.9833 13.9661 51.1031 13.8672H51.1891V15.4688C51.0172 15.5365 50.8036 15.6224 50.5484 15.7266C50.2932 15.8255 50.0641 15.9036 49.8609 15.9609C49.5745 16.0391 49.3141 16.099 49.0797 16.1406C48.8505 16.1823 48.5589 16.2031 48.2047 16.2031ZM49.9234 10.6641C49.913 10.2682 49.8661 9.92708 49.7828 9.64062C49.6995 9.35417 49.5797 9.11198 49.4234 8.91406C49.2516 8.69531 49.0302 8.52865 48.7594 8.41406C48.4938 8.29948 48.163 8.24219 47.7672 8.24219C47.3766 8.24219 47.0432 8.30208 46.7672 8.42188C46.4964 8.53646 46.249 8.70573 46.025 8.92969C45.8063 9.15885 45.6396 9.41406 45.525 9.69531C45.4104 9.97135 45.3375 10.2943 45.3063 10.6641H49.9234ZM55.9375 16H54.4688V3.84375H55.9375V16ZM66.8734 11.6406C66.8734 13.1094 66.5193 14.2448 65.8109 15.0469C65.1026 15.8438 64.1599 16.2422 62.9828 16.2422C61.7693 16.2422 60.8135 15.8307 60.1156 15.0078C59.4229 14.1797 59.0766 13.0573 59.0766 11.6406C59.0766 10.1823 59.4333 9.04948 60.1469 8.24219C60.8656 7.4349 61.8109 7.03125 62.9828 7.03125C64.1599 7.03125 65.1026 7.4349 65.8109 8.24219C66.5193 9.04427 66.8734 10.1771 66.8734 11.6406ZM65.3578 11.6406C65.3578 10.5104 65.1521 9.67188 64.7406 9.125C64.3292 8.57292 63.7432 8.29688 62.9828 8.29688C62.2172 8.29688 61.626 8.57292 61.2094 9.125C60.7979 9.67188 60.5922 10.5104 60.5922 11.6406C60.5922 12.7344 60.7979 13.5651 61.2094 14.1328C61.626 14.6953 62.2172 14.9766 62.9828 14.9766C63.738 14.9766 64.3214 14.7005 64.7328 14.1484C65.1495 13.5911 65.3578 12.7552 65.3578 11.6406ZM76.7781 16H75.3094V15.0312C74.8563 15.4271 74.4266 15.7292 74.0203 15.9375C73.6141 16.1406 73.1609 16.2422 72.6609 16.2422C72.2807 16.2422 71.9214 16.1797 71.5828 16.0547C71.2495 15.9297 70.9578 15.7318 70.7078 15.4609C70.4578 15.1901 70.2625 14.849 70.1219 14.4375C69.9865 14.026 69.9188 13.526 69.9188 12.9375V7.27344H71.3875V12.2422C71.3875 12.7057 71.4031 13.0911 71.4344 13.3984C71.4708 13.7005 71.549 13.9661 71.6688 14.1953C71.7885 14.4193 71.95 14.5833 72.1531 14.6875C72.3615 14.7917 72.6583 14.8438 73.0438 14.8438C73.4031 14.8438 73.7859 14.7422 74.1922 14.5391C74.5984 14.3359 74.9708 14.0859 75.3094 13.7891V7.27344H76.7781V16ZM87.8234 11.4062C87.8234 12.8594 87.4745 14.0182 86.7766 14.8828C86.0839 15.7422 85.2063 16.1719 84.1438 16.1719C83.7115 16.1719 83.3286 16.1224 82.9953 16.0234C82.662 15.9245 82.3208 15.7708 81.9719 15.5625V19.2188H80.5031V7.27344H81.9719V8.1875C82.3365 7.85938 82.7401 7.58594 83.1828 7.36719C83.6307 7.14323 84.1177 7.03125 84.6438 7.03125C85.6438 7.03125 86.4224 7.42708 86.9797 8.21875C87.5422 9.01042 87.8234 10.0729 87.8234 11.4062ZM86.3078 11.5703C86.3078 10.5755 86.149 9.80469 85.8313 9.25781C85.5135 8.70573 84.9979 8.42969 84.2844 8.42969C83.8677 8.42969 83.4641 8.52344 83.0734 8.71094C82.688 8.89323 82.3208 9.13021 81.9719 9.42188V14.3672C82.3573 14.5547 82.6854 14.6823 82.9563 14.75C83.2323 14.8177 83.5474 14.8516 83.9016 14.8516C84.662 14.8516 85.2531 14.5729 85.675 14.0156C86.0969 13.4583 86.3078 12.6432 86.3078 11.5703ZM94.7359 16.2031C93.3453 16.2031 92.2646 15.8125 91.4938 15.0312C90.7281 14.2448 90.3453 13.1302 90.3453 11.6875C90.3453 10.2656 90.7177 9.13542 91.4625 8.29688C92.2073 7.45312 93.1813 7.03125 94.3844 7.03125C94.926 7.03125 95.4052 7.10938 95.8219 7.26562C96.2385 7.42188 96.6031 7.66667 96.9156 8C97.2281 8.33333 97.4677 8.74219 97.6344 9.22656C97.801 9.70573 97.8844 10.2943 97.8844 10.9922V11.7891H91.8375C91.8375 12.8047 92.0927 13.5807 92.6031 14.1172C93.1135 14.6536 93.8193 14.9219 94.7203 14.9219C95.0432 14.9219 95.3583 14.8854 95.6656 14.8125C95.9781 14.7396 96.2594 14.6458 96.5094 14.5312C96.775 14.4115 96.999 14.2969 97.1813 14.1875C97.3635 14.0729 97.5146 13.9661 97.6344 13.8672H97.7203V15.4688C97.5484 15.5365 97.3349 15.6224 97.0797 15.7266C96.8245 15.8255 96.5953 15.9036 96.3922 15.9609C96.1057 16.0391 95.8453 16.099 95.6109 16.1406C95.3818 16.1823 95.0901 16.2031 94.7359 16.2031ZM96.4547 10.6641C96.4443 10.2682 96.3974 9.92708 96.3141 9.64062C96.2307 9.35417 96.1109 9.11198 95.9547 8.91406C95.7828 8.69531 95.5615 8.52865 95.2906 8.41406C95.025 8.29948 94.6943 8.24219 94.2984 8.24219C93.9078 8.24219 93.5745 8.30208 93.2984 8.42188C93.0276 8.53646 92.7802 8.70573 92.5563 8.92969C92.3375 9.15885 92.1708 9.41406 92.0563 9.69531C91.9417 9.97135 91.8688 10.2943 91.8375 10.6641H96.4547ZM16.0078 175H14.4609V164.977L11.4297 171.797H10.4922L7.48438 164.977V175H6.03906V163.367H8.14844L11.0547 169.844L13.8594 163.367H16.0078V175ZM24.725 172.852V170.43C24.376 170.461 23.9333 170.505 23.3969 170.562C22.8656 170.615 22.4359 170.69 22.1078 170.789C21.7172 170.909 21.3943 171.094 21.1391 171.344C20.8839 171.589 20.7563 171.932 20.7563 172.375C20.7563 172.875 20.8969 173.253 21.1781 173.508C21.4594 173.763 21.8708 173.891 22.4125 173.891C22.876 173.891 23.2953 173.792 23.6703 173.594C24.0453 173.391 24.3969 173.143 24.725 172.852ZM24.725 174.07C24.6052 174.159 24.4438 174.284 24.2406 174.445C24.0427 174.602 23.85 174.727 23.6625 174.82C23.4021 174.956 23.1495 175.06 22.9047 175.133C22.6651 175.206 22.3266 175.242 21.8891 175.242C21.5297 175.242 21.1885 175.174 20.8656 175.039C20.5427 174.904 20.2589 174.714 20.0141 174.469C19.7797 174.229 19.5922 173.935 19.4516 173.586C19.3109 173.232 19.2406 172.859 19.2406 172.469C19.2406 171.865 19.3682 171.352 19.6234 170.93C19.8786 170.503 20.2823 170.164 20.8344 169.914C21.324 169.69 21.9021 169.536 22.5688 169.453C23.2354 169.365 23.9542 169.299 24.725 169.258V168.977C24.725 168.633 24.6729 168.357 24.5688 168.148C24.4646 167.935 24.3188 167.771 24.1313 167.656C23.9438 167.536 23.7146 167.458 23.4438 167.422C23.1729 167.38 22.8943 167.359 22.6078 167.359C22.2693 167.359 21.8708 167.411 21.4125 167.516C20.9542 167.615 20.4958 167.76 20.0375 167.953H19.9516V166.461C20.2224 166.383 20.6104 166.297 21.1156 166.203C21.6208 166.109 22.1208 166.062 22.6156 166.062C23.2146 166.062 23.7198 166.109 24.1313 166.203C24.5427 166.297 24.9125 166.466 25.2406 166.711C25.5583 166.951 25.7953 167.26 25.9516 167.641C26.1078 168.021 26.1859 168.484 26.1859 169.031V175H24.725V174.07ZM34.4813 167.852H34.4031C34.2938 167.82 34.1766 167.802 34.0516 167.797C33.9318 167.786 33.7859 167.781 33.6141 167.781C33.2182 167.781 32.825 167.867 32.4344 168.039C32.0438 168.211 31.674 168.466 31.325 168.805V175H29.8563V166.273H31.325V167.57C31.8615 167.096 32.3276 166.763 32.7234 166.57C33.1245 166.372 33.5125 166.273 33.8875 166.273C34.0385 166.273 34.1505 166.279 34.2234 166.289C34.3016 166.294 34.3875 166.305 34.4813 166.32V167.852ZM39.8625 175.172C39.0604 175.172 38.4354 174.945 37.9875 174.492C37.5396 174.034 37.3156 173.312 37.3156 172.328V167.492H36.3234V166.273H37.3156V163.766H38.7844V166.273H41.4875V167.492H38.7844V171.641C38.7844 172.083 38.7922 172.424 38.8078 172.664C38.8234 172.904 38.8833 173.128 38.9875 173.336C39.076 173.518 39.2193 173.656 39.4172 173.75C39.6151 173.839 39.8833 173.883 40.2219 173.883C40.4615 173.883 40.6932 173.849 40.9172 173.781C41.1411 173.708 41.3026 173.648 41.4016 173.602H41.4875V174.922C41.2115 175 40.9302 175.06 40.6438 175.102C40.3625 175.148 40.1021 175.172 39.8625 175.172ZM45.6813 175H44.2125V166.273H45.6813V175ZM45.7828 164.812H44.1109V163.289H45.7828V164.812ZM56.2969 175H54.8281V170.031C54.8281 169.63 54.8073 169.258 54.7656 168.914C54.7292 168.565 54.6562 168.286 54.5469 168.078C54.4271 167.859 54.2604 167.698 54.0469 167.594C53.8333 167.484 53.5417 167.43 53.1719 167.43C52.8073 167.43 52.4297 167.529 52.0391 167.727C51.6536 167.919 51.276 168.172 50.9062 168.484V175H49.4375V166.273H50.9062V167.242C51.3438 166.852 51.776 166.552 52.2031 166.344C52.6302 166.135 53.0807 166.031 53.5547 166.031C54.4141 166.031 55.0859 166.315 55.5703 166.883C56.0547 167.445 56.2969 168.263 56.2969 169.336V175ZM61.4594 175H59.9906V166.273H61.4594V175ZM61.5609 164.812H59.8891V163.289H61.5609V164.812ZM71.9344 178.219H70.4656V174.047C70.0385 174.438 69.6219 174.724 69.2156 174.906C68.8094 175.083 68.3589 175.172 67.8641 175.172C66.8745 175.172 66.0854 174.776 65.4969 173.984C64.9083 173.188 64.6141 172.081 64.6141 170.664C64.6141 169.914 64.7156 169.253 64.9187 168.68C65.1271 168.102 65.4005 167.617 65.7391 167.227C66.062 166.846 66.4474 166.552 66.8953 166.344C67.3432 166.135 67.8094 166.031 68.2937 166.031C68.7417 166.031 69.1297 166.083 69.4578 166.188C69.7859 166.292 70.1219 166.445 70.4656 166.648L70.5594 166.273H71.9344V178.219ZM70.4656 172.812V167.844C70.0958 167.661 69.7651 167.534 69.4734 167.461C69.1818 167.388 68.8693 167.352 68.5359 167.352C67.7651 167.352 67.1714 167.63 66.7547 168.188C66.338 168.745 66.1297 169.547 66.1297 170.594C66.1297 171.615 66.2964 172.401 66.6297 172.953C66.963 173.5 67.4812 173.773 68.1844 173.773C68.5958 173.773 68.9969 173.685 69.3875 173.508C69.7781 173.331 70.1375 173.099 70.4656 172.812ZM82.4563 175H80.9875V174.031C80.5344 174.427 80.1047 174.729 79.6984 174.938C79.2922 175.141 78.8391 175.242 78.3391 175.242C77.9589 175.242 77.5995 175.18 77.2609 175.055C76.9276 174.93 76.6359 174.732 76.3859 174.461C76.1359 174.19 75.9406 173.849 75.8 173.438C75.6646 173.026 75.5969 172.526 75.5969 171.938V166.273H77.0656V171.242C77.0656 171.706 77.0813 172.091 77.1125 172.398C77.149 172.701 77.2271 172.966 77.3469 173.195C77.4667 173.419 77.6281 173.583 77.8313 173.688C78.0396 173.792 78.3365 173.844 78.7219 173.844C79.0813 173.844 79.4641 173.742 79.8703 173.539C80.2766 173.336 80.649 173.086 80.9875 172.789V166.273H82.4563V175ZM89.9703 175.203C88.5797 175.203 87.499 174.812 86.7281 174.031C85.9625 173.245 85.5797 172.13 85.5797 170.688C85.5797 169.266 85.9521 168.135 86.6969 167.297C87.4417 166.453 88.4156 166.031 89.6188 166.031C90.1604 166.031 90.6396 166.109 91.0563 166.266C91.4729 166.422 91.8375 166.667 92.15 167C92.4625 167.333 92.7021 167.742 92.8688 168.227C93.0354 168.706 93.1188 169.294 93.1188 169.992V170.789H87.0719C87.0719 171.805 87.3271 172.581 87.8375 173.117C88.3479 173.654 89.0536 173.922 89.9547 173.922C90.2776 173.922 90.5927 173.885 90.9 173.812C91.2125 173.74 91.4938 173.646 91.7438 173.531C92.0094 173.411 92.2333 173.297 92.4156 173.188C92.5979 173.073 92.749 172.966 92.8688 172.867H92.9547V174.469C92.7828 174.536 92.5693 174.622 92.3141 174.727C92.0589 174.826 91.8297 174.904 91.6266 174.961C91.3401 175.039 91.0797 175.099 90.8453 175.141C90.6161 175.182 90.3245 175.203 89.9703 175.203ZM91.6891 169.664C91.6786 169.268 91.6318 168.927 91.5484 168.641C91.4651 168.354 91.3453 168.112 91.1891 167.914C91.0172 167.695 90.7958 167.529 90.525 167.414C90.2594 167.299 89.9286 167.242 89.5328 167.242C89.1422 167.242 88.8089 167.302 88.5328 167.422C88.262 167.536 88.0146 167.706 87.7906 167.93C87.5719 168.159 87.4052 168.414 87.2906 168.695C87.176 168.971 87.1031 169.294 87.0719 169.664H91.6891ZM24.7391 333.227C23.9161 333.227 23.1635 333.102 22.4812 332.852C21.799 332.602 21.213 332.221 20.7234 331.711C20.2339 331.195 19.8589 330.557 19.5984 329.797C19.338 329.036 19.2078 328.161 19.2078 327.172C19.2078 326.234 19.338 325.396 19.5984 324.656C19.8641 323.911 20.2417 323.276 20.7312 322.75C21.2052 322.24 21.7885 321.846 22.4812 321.57C23.174 321.294 23.9318 321.156 24.7547 321.156C25.1453 321.156 25.5203 321.185 25.8797 321.242C26.2391 321.299 26.5828 321.378 26.9109 321.477C27.1714 321.555 27.4604 321.664 27.7781 321.805C28.101 321.94 28.3615 322.057 28.5594 322.156V324.023H28.4266C28.2339 323.852 28.0333 323.69 27.825 323.539C27.6219 323.383 27.3328 323.216 26.9578 323.039C26.6453 322.883 26.2859 322.753 25.8797 322.648C25.4734 322.544 25.0359 322.492 24.5672 322.492C23.4474 322.492 22.5411 322.914 21.8484 323.758C21.1609 324.602 20.8172 325.724 20.8172 327.125C20.8172 327.906 20.9083 328.589 21.0906 329.172C21.2729 329.755 21.5359 330.25 21.8797 330.656C22.213 331.057 22.6141 331.365 23.0828 331.578C23.5568 331.786 24.088 331.891 24.6766 331.891C25.1141 331.891 25.549 331.859 25.9812 331.797C26.4135 331.734 26.7781 331.641 27.075 331.516V328.508H24.3875V327.148H28.6062V332.227C28.4083 332.315 28.1427 332.427 27.8094 332.562C27.4812 332.698 27.174 332.805 26.8875 332.883C26.5073 332.997 26.1635 333.083 25.8562 333.141C25.549 333.198 25.1766 333.227 24.7391 333.227ZM38.8391 333H37.3703V332.031C36.9172 332.427 36.4875 332.729 36.0812 332.938C35.675 333.141 35.2219 333.242 34.7219 333.242C34.3417 333.242 33.9823 333.18 33.6437 333.055C33.3104 332.93 33.0187 332.732 32.7687 332.461C32.5187 332.19 32.3234 331.849 32.1828 331.438C32.0474 331.026 31.9797 330.526 31.9797 329.938V324.273H33.4484V329.242C33.4484 329.706 33.4641 330.091 33.4953 330.398C33.5318 330.701 33.6099 330.966 33.7297 331.195C33.8495 331.419 34.0109 331.583 34.2141 331.688C34.4224 331.792 34.7193 331.844 35.1047 331.844C35.4641 331.844 35.8469 331.742 36.2531 331.539C36.6594 331.336 37.0318 331.086 37.3703 330.789V324.273H38.8391V333ZM49.4234 324.273L44.7281 336.219H43.1578L44.7203 332.578L41.5484 324.273H43.1344L45.5172 330.734L47.8922 324.273H49.4234ZM56.6953 330.852V328.43C56.3464 328.461 55.9036 328.505 55.3672 328.562C54.8359 328.615 54.4062 328.69 54.0781 328.789C53.6875 328.909 53.3646 329.094 53.1094 329.344C52.8542 329.589 52.7266 329.932 52.7266 330.375C52.7266 330.875 52.8672 331.253 53.1484 331.508C53.4297 331.763 53.8411 331.891 54.3828 331.891C54.8464 331.891 55.2656 331.792 55.6406 331.594C56.0156 331.391 56.3672 331.143 56.6953 330.852ZM56.6953 332.07C56.5755 332.159 56.4141 332.284 56.2109 332.445C56.013 332.602 55.8203 332.727 55.6328 332.82C55.3724 332.956 55.1198 333.06 54.875 333.133C54.6354 333.206 54.2969 333.242 53.8594 333.242C53.5 333.242 53.1589 333.174 52.8359 333.039C52.513 332.904 52.2292 332.714 51.9844 332.469C51.75 332.229 51.5625 331.935 51.4219 331.586C51.2812 331.232 51.2109 330.859 51.2109 330.469C51.2109 329.865 51.3385 329.352 51.5938 328.93C51.849 328.503 52.2526 328.164 52.8047 327.914C53.2943 327.69 53.8724 327.536 54.5391 327.453C55.2057 327.365 55.9245 327.299 56.6953 327.258V326.977C56.6953 326.633 56.6432 326.357 56.5391 326.148C56.4349 325.935 56.2891 325.771 56.1016 325.656C55.9141 325.536 55.6849 325.458 55.4141 325.422C55.1432 325.38 54.8646 325.359 54.5781 325.359C54.2396 325.359 53.8411 325.411 53.3828 325.516C52.9245 325.615 52.4661 325.76 52.0078 325.953H51.9219V324.461C52.1927 324.383 52.5807 324.297 53.0859 324.203C53.5911 324.109 54.0911 324.062 54.5859 324.062C55.1849 324.062 55.6901 324.109 56.1016 324.203C56.513 324.297 56.8828 324.466 57.2109 324.711C57.5286 324.951 57.7656 325.26 57.9219 325.641C58.0781 326.021 58.1562 326.484 58.1562 327.031V333H56.6953V332.07ZM68.6859 333H67.2172V328.031C67.2172 327.63 67.1964 327.258 67.1547 326.914C67.1182 326.565 67.0453 326.286 66.9359 326.078C66.8161 325.859 66.6495 325.698 66.4359 325.594C66.2224 325.484 65.9307 325.43 65.5609 325.43C65.1964 325.43 64.8187 325.529 64.4281 325.727C64.0427 325.919 63.6651 326.172 63.2953 326.484V333H61.8266V324.273H63.2953V325.242C63.7328 324.852 64.1651 324.552 64.5922 324.344C65.0193 324.135 65.4698 324.031 65.9437 324.031C66.8031 324.031 67.475 324.315 67.9594 324.883C68.4437 325.445 68.6859 326.263 68.6859 327.336V333ZM76.1375 333.203C74.7469 333.203 73.6661 332.812 72.8953 332.031C72.1297 331.245 71.7469 330.13 71.7469 328.688C71.7469 327.266 72.1193 326.135 72.8641 325.297C73.6089 324.453 74.5828 324.031 75.7859 324.031C76.3276 324.031 76.8068 324.109 77.2234 324.266C77.6401 324.422 78.0047 324.667 78.3172 325C78.6297 325.333 78.8693 325.742 79.0359 326.227C79.2026 326.706 79.2859 327.294 79.2859 327.992V328.789H73.2391C73.2391 329.805 73.4943 330.581 74.0047 331.117C74.5151 331.654 75.2208 331.922 76.1219 331.922C76.4448 331.922 76.7599 331.885 77.0672 331.812C77.3797 331.74 77.6609 331.646 77.9109 331.531C78.1766 331.411 78.4005 331.297 78.5828 331.188C78.7651 331.073 78.9161 330.966 79.0359 330.867H79.1219V332.469C78.95 332.536 78.7365 332.622 78.4812 332.727C78.226 332.826 77.9969 332.904 77.7937 332.961C77.5073 333.039 77.2469 333.099 77.0125 333.141C76.7833 333.182 76.4917 333.203 76.1375 333.203ZM77.8562 327.664C77.8458 327.268 77.799 326.927 77.7156 326.641C77.6323 326.354 77.5125 326.112 77.3562 325.914C77.1844 325.695 76.963 325.529 76.6922 325.414C76.4266 325.299 76.0958 325.242 75.7 325.242C75.3094 325.242 74.976 325.302 74.7 325.422C74.4292 325.536 74.1818 325.706 73.9578 325.93C73.7391 326.159 73.5724 326.414 73.4578 326.695C73.3432 326.971 73.2703 327.294 73.2391 327.664H77.8562ZM25.8531 492H23.8453L20.1578 487.375H18.3922V492H16.8453V480.367H19.8453C20.512 480.367 21.0693 480.404 21.5172 480.477C21.9703 480.549 22.4 480.719 22.8062 480.984C23.2125 481.245 23.5328 481.581 23.7672 481.992C24.0068 482.404 24.1266 482.914 24.1266 483.523C24.1266 484.378 23.9104 485.091 23.4781 485.664C23.0458 486.237 22.4573 486.661 21.7125 486.938L25.8531 492ZM22.5094 483.641C22.5094 483.302 22.4495 483.003 22.3297 482.742C22.2099 482.477 22.025 482.26 21.775 482.094C21.5562 481.948 21.301 481.846 21.0094 481.789C20.7177 481.727 20.3557 481.695 19.9234 481.695H18.3922V486.086H19.7516C20.1943 486.086 20.5927 486.047 20.9469 485.969C21.301 485.891 21.6031 485.729 21.8531 485.484C22.0771 485.266 22.2411 485.005 22.3453 484.703C22.4547 484.401 22.5094 484.047 22.5094 483.641ZM32.0547 492.203C30.6641 492.203 29.5833 491.812 28.8125 491.031C28.0469 490.245 27.6641 489.13 27.6641 487.688C27.6641 486.266 28.0365 485.135 28.7812 484.297C29.526 483.453 30.5 483.031 31.7031 483.031C32.2448 483.031 32.724 483.109 33.1406 483.266C33.5573 483.422 33.9219 483.667 34.2344 484C34.5469 484.333 34.7865 484.742 34.9531 485.227C35.1198 485.706 35.2031 486.294 35.2031 486.992V487.789H29.1562C29.1562 488.805 29.4115 489.581 29.9219 490.117C30.4323 490.654 31.138 490.922 32.0391 490.922C32.362 490.922 32.6771 490.885 32.9844 490.812C33.2969 490.74 33.5781 490.646 33.8281 490.531C34.0937 490.411 34.3177 490.297 34.5 490.188C34.6823 490.073 34.8333 489.966 34.9531 489.867H35.0391V491.469C34.8672 491.536 34.6536 491.622 34.3984 491.727C34.1432 491.826 33.9141 491.904 33.7109 491.961C33.4245 492.039 33.1641 492.099 32.9297 492.141C32.7005 492.182 32.4089 492.203 32.0547 492.203ZM33.7734 486.664C33.763 486.268 33.7161 485.927 33.6328 485.641C33.5495 485.354 33.4297 485.112 33.2734 484.914C33.1016 484.695 32.8802 484.529 32.6094 484.414C32.3437 484.299 32.013 484.242 31.6172 484.242C31.2266 484.242 30.8932 484.302 30.6172 484.422C30.3464 484.536 30.099 484.706 29.875 484.93C29.6562 485.159 29.4896 485.414 29.375 485.695C29.2604 485.971 29.1875 486.294 29.1562 486.664H33.7734ZM34.1484 478.906L32.0156 481.828H30.8516L32.25 478.906H34.1484ZM45.0844 492H43.6156V491.031C43.1625 491.427 42.7328 491.729 42.3266 491.938C41.9203 492.141 41.4672 492.242 40.9672 492.242C40.587 492.242 40.2276 492.18 39.8891 492.055C39.5557 491.93 39.2641 491.732 39.0141 491.461C38.7641 491.19 38.5687 490.849 38.4281 490.438C38.2927 490.026 38.225 489.526 38.225 488.938V483.273H39.6937V488.242C39.6937 488.706 39.7094 489.091 39.7406 489.398C39.7771 489.701 39.8552 489.966 39.975 490.195C40.0948 490.419 40.2562 490.583 40.4594 490.688C40.6677 490.792 40.9646 490.844 41.35 490.844C41.7094 490.844 42.0922 490.742 42.4984 490.539C42.9047 490.336 43.2771 490.086 43.6156 489.789V483.273H45.0844V492ZM55.6688 492H54.2V487.031C54.2 486.63 54.1792 486.258 54.1375 485.914C54.101 485.565 54.0281 485.286 53.9188 485.078C53.799 484.859 53.6323 484.698 53.4188 484.594C53.2052 484.484 52.9135 484.43 52.5438 484.43C52.1792 484.43 51.8016 484.529 51.4109 484.727C51.0255 484.919 50.6479 485.172 50.2781 485.484V492H48.8094V483.273H50.2781V484.242C50.7156 483.852 51.1479 483.552 51.575 483.344C52.0021 483.135 52.4526 483.031 52.9266 483.031C53.7859 483.031 54.4578 483.315 54.9422 483.883C55.4266 484.445 55.6688 485.263 55.6688 486.336V492ZM60.8312 492H59.3625V483.273H60.8312V492ZM60.9328 481.812H59.2609V480.289H60.9328V481.812ZM71.7672 487.641C71.7672 489.109 71.413 490.245 70.7047 491.047C69.9964 491.844 69.0536 492.242 67.8766 492.242C66.663 492.242 65.7073 491.831 65.0094 491.008C64.3167 490.18 63.9703 489.057 63.9703 487.641C63.9703 486.182 64.3271 485.049 65.0406 484.242C65.7594 483.435 66.7047 483.031 67.8766 483.031C69.0536 483.031 69.9964 483.435 70.7047 484.242C71.413 485.044 71.7672 486.177 71.7672 487.641ZM70.2516 487.641C70.2516 486.51 70.0458 485.672 69.6344 485.125C69.2229 484.573 68.637 484.297 67.8766 484.297C67.1109 484.297 66.5198 484.573 66.1031 485.125C65.6917 485.672 65.4859 486.51 65.4859 487.641C65.4859 488.734 65.6917 489.565 66.1031 490.133C66.5198 490.695 67.1109 490.977 67.8766 490.977C68.6318 490.977 69.2151 490.701 69.6266 490.148C70.0432 489.591 70.2516 488.755 70.2516 487.641ZM81.7344 492H80.2656V487.031C80.2656 486.63 80.2448 486.258 80.2031 485.914C80.1667 485.565 80.0938 485.286 79.9844 485.078C79.8646 484.859 79.6979 484.698 79.4844 484.594C79.2708 484.484 78.9792 484.43 78.6094 484.43C78.2448 484.43 77.8672 484.529 77.4766 484.727C77.0911 484.919 76.7135 485.172 76.3438 485.484V492H74.875V483.273H76.3438V484.242C76.7812 483.852 77.2135 483.552 77.6406 483.344C78.0677 483.135 78.5182 483.031 78.9922 483.031C79.8516 483.031 80.5234 483.315 81.0078 483.883C81.4922 484.445 81.7344 485.263 81.7344 486.336V492Z" transform="translate(0 -3)" fill="black"/>
</svg>
